<?xml version="1.0" encoding="UTF-8"?>
<!DOCTYPE svg PUBLIC "-//W3C//DTD SVG 1.1//EN" "http://www.w3.org/Graphics/SVG/1.1/DTD/svg11.dtd">
<!-- Creator: CorelDRAW X6 -->
<svg xmlns="http://www.w3.org/2000/svg" xml:space="preserve" width="1600px" height="1600px" version="1.1" style="shape-rendering:geometricPrecision; text-rendering:geometricPrecision; image-rendering:optimizeQuality; fill-rule:evenodd; clip-rule:evenodd"
viewBox="0 0 50769 50769"
 xmlns:xlink="http://www.w3.org/1999/xlink">
 <defs>
  <style type="text/css">
   <![CDATA[
    .fil1 {fill:#08E1FF}
    .fil2 {fill:#0FBEFF}
    .fil0 {fill:#72EFFF}
   ]]>
  </style>
 </defs>
 <g id="Layer_x0020_1">
  <metadata id="CorelCorpID_0Corel-Layer"/>
  <g id="_673250032">
   <path class="fil0" d="M25379 39068l7 -39068c-1153,0 -1421,856 -1819,1653 -3462,6927 -23383,46511 -23531,47172 -16,72 -28,143 -36,212l0 420c89,732 649,1242 1366,1313l320 0c670,-84 1879,-791 2413,-1058 833,-416 1547,-774 2380,-1190 3190,-1595 6263,-3131 9453,-4727 2745,-1372 6962,-3366 9447,-4727z"/>
   <path class="fil1" d="M25379 39068l22126 11007c454,-1363 -205,-2101 -710,-3262 -445,-1023 -900,-2101 -1357,-3107 -932,-2050 -1862,-4131 -2727,-6198 -1751,-4184 -3722,-8238 -5448,-12400 -1611,-3886 -3688,-8361 -5420,-12328 -507,-1162 -4986,-11512 -5512,-12382 -63,-149 45,-13 -107,-154 -16,-15 -224,-150 -231,-153 -178,-75 -306,-90 -593,-90l-14 0 -7 39068z"/>
   <path class="fil2" d="M47505 50075c317,293 1107,637 1576,694l330 0c649,-63 1097,-471 1277,-974 40,-112 66,-220 81,-325l0 -429c-59,-439 -283,-824 -463,-1181 -294,-584 -548,-1096 -826,-1653 -1091,-2181 -2181,-4363 -3272,-6544l-18873 -37746c-283,-565 -467,-1244 -1005,-1520 526,870 5005,11220 5512,12382 1732,3967 3809,8443 5420,12328 1726,4162 3697,8216 5448,12400 865,2067 1795,4148 2727,6198 457,1006 912,2084 1357,3107 505,1161 1164,1900 710,3262z"/>
  </g>
 </g>
</svg>
